<svg xmlns="http://www.w3.org/2000/svg" viewBox="0 0 100 100">
  <circle cx="50" cy="50" r="49" fill="#0f172a"/>
  <circle cx="50" cy="50" r="48.5" fill="none" stroke="#c9a84c" stroke-width="0.8"/>
  <circle cx="52" cy="50" r="28" fill="none" stroke="#c9a84c" stroke-width="0.8"/>
  <line x1="52" y1="25" x2="52" y2="28.5" stroke="#c9a84c" stroke-width="1" stroke-linecap="round"/>
  <line x1="52" y1="71.5" x2="52" y2="75" stroke="#c9a84c" stroke-width="1" stroke-linecap="round"/>
  <line x1="24" y1="50" x2="27.5" y2="50" stroke="#c9a84c" stroke-width="1" stroke-linecap="round"/>
  <line x1="76.5" y1="50" x2="80" y2="50" stroke="#c9a84c" stroke-width="1" stroke-linecap="round"/>
  <line x1="52" y1="50" x2="57" y2="33" stroke="#c9a84c" stroke-width="1.5" stroke-linecap="round"/>
  <line x1="52" y1="50" x2="52" y2="28" stroke="#c9a84c" stroke-width="1" stroke-linecap="round"/>
  <circle cx="52" cy="50" r="1.5" fill="#c9a84c"/>
  <circle cx="40" cy="44" r="19" fill="#c9a84c"/>
  <circle cx="47" cy="38" r="16" fill="#0f172a"/>
  <g transform="translate(30,28) scale(0.55)">
    <polygon points="0,-9 2.1,-2.9 8.6,-2.9 3.5,1.1 5.3,7.6 0,3.9 -5.3,7.6 -3.5,1.1 -8.6,-2.9 -2.1,-2.9" fill="#c9a84c"/>
  </g>
</svg>
